<svg version="1.1" id="Layer_1" xmlns="http://www.w3.org/2000/svg" xmlns:xlink="http://www.w3.org/1999/xlink" viewBox="0 0 512 512" xml:space="preserve" fill="#000000">
<g id="SVGRepo_bgCarrier" stroke-width="0"></g><g id="SVGRepo_tracerCarrier" stroke-linecap="round" stroke-linejoin="round"></g>
<g id="SVGRepo_iconCarrier"> 
<path style="fill:#00ADB5;" d="M360.894,392.805h57.173c0-21.973,17.811-39.784,39.784-39.784c9.097,0,17.477,3.06,24.178,8.198 V75.093H14.364v337.156h346.53V392.805z"></path> 
<rect x="85.093" y="166.881" style="fill:#7DF5A5;" width="326.209" height="153.595"></rect> 
<g> 
<path style="fill:#EEEEEE;" d="M203.506,243.675c0,42.312-34.293,76.605-76.605,76.605c-15.427,0-29.794-4.553-41.81-12.409 V179.466c12.016-7.857,26.383-12.411,41.81-12.411C169.212,167.055,203.506,201.363,203.506,243.675z"></path> 
<path style="fill:#EEEEEE;" d="M411.303,179.466v128.405c-12.016,7.857-26.383,12.409-41.81,12.409 c-42.312,0-76.605-34.293-76.605-76.605s34.293-76.62,76.605-76.62C384.921,167.055,399.288,171.609,411.303,179.466z"></path> 
<rect x="114.08" y="31.672" style="fill:#EEEEEE;" width="89.776" height="43.423"></rect> 
<rect x="202.749" y="31.672" style="fill:#EEEEEE;" width="89.776" height="43.423"></rect> 
<rect x="292.525" y="31.672" style="fill:#EEEEEE;" width="89.776" height="43.423"></rect> </g> 
<path d="M365.871,258.027c-0.934,0-1.883-0.086-2.801-0.271c-0.921-0.188-1.826-0.46-2.686-0.819 c-0.876-0.359-1.709-0.806-2.485-1.322c-0.79-0.531-1.523-1.135-2.183-1.796c-0.661-0.661-1.264-1.395-1.781-2.185 c-0.531-0.776-0.962-1.609-1.322-2.471c-0.373-0.876-0.646-1.781-0.833-2.686c-0.187-0.932-0.271-1.882-0.271-2.815 c0-0.934,0.086-1.882,0.271-2.801c0.187-0.919,0.46-1.824,0.833-2.686c0.359-0.875,0.79-1.708,1.322-2.484 c0.517-0.79,1.12-1.524,1.781-2.185c0.661-0.661,1.393-1.264,2.183-1.78c0.776-0.517,1.609-0.962,2.485-1.322 c0.862-0.359,1.765-0.632,2.686-0.819c4.654-0.948,9.624,0.589,12.956,3.92c0.661,0.661,1.264,1.395,1.781,2.185 c0.517,0.776,0.962,1.609,1.322,2.484c0.374,0.863,0.646,1.767,0.833,2.686c0.187,0.921,0.273,1.867,0.273,2.801 s-0.088,1.883-0.273,2.815c-0.187,0.905-0.46,1.81-0.833,2.686c-0.359,0.862-0.804,1.695-1.322,2.471 c-0.517,0.79-1.12,1.524-1.781,2.185s-1.393,1.264-2.183,1.796c-0.776,0.516-1.609,0.962-2.485,1.322 c-0.862,0.359-1.765,0.631-2.686,0.819C367.753,257.941,366.805,258.027,365.871,258.027z"></path> 
<g> 
<path style="fill:#7DF5A5;" d="M497.636,392.805c0-21.973-17.811-39.784-39.784-39.784c-21.973,0-39.784,17.813-39.784,39.784 h-57.173v39.784h96.958C479.824,432.589,497.636,414.777,497.636,392.805z"></path> 
<path style="fill:#7DF5A5;" d="M388.388,440.542c0-21.973-17.811-39.784-39.784-39.784c-21.973,0-39.784,17.813-39.784,39.784 h-57.173v39.784h96.958C370.577,480.326,388.388,462.515,388.388,440.542z"></path> </g> 
<path d="M411.303,334.835c7.932,0,14.364-6.432,14.364-14.364v-12.599V179.466v-12.587c0-7.932-6.432-14.364-14.364-14.364H85.09 c-7.933,0-14.364,6.432-14.364,14.364v12.587v128.406v12.599c0,7.932,6.431,14.364,14.364,14.364H411.303z M322.779,229.304h-13.834 c6.506-27.42,31.174-47.884,60.549-47.884c9.607,0,18.965,2.182,27.445,6.359v111.78c-8.479,4.176-17.839,6.358-27.445,6.358 c-29.377,0-54.049-20.466-60.552-47.884h13.837c7.932,0,14.364-6.432,14.364-14.364 C337.143,235.736,330.712,229.304,322.779,229.304z M303.413,181.243c-12.29,13.005-20.804,29.61-23.744,48.061h-62.945 c-2.94-18.451-11.452-35.056-23.744-48.061H303.413L303.413,181.243z M216.727,258.032h62.941 c2.939,18.456,11.457,35.067,23.754,48.075h-110.45C205.27,293.099,213.787,276.488,216.727,258.032z M99.454,187.778 c8.481-4.177,17.837-6.359,27.446-6.359c29.375,0,54.044,20.465,60.549,47.884H99.454L99.454,187.778L99.454,187.778z M99.454,258.032h87.997c-6.501,27.418-31.174,47.884-60.552,47.884c-9.607,0-18.966-2.182-27.446-6.358V258.032z"></path> <path d="M496.395,354.819V75.095c0-7.932-6.432-14.364-14.364-14.364h-85.359V31.672c0-7.932-6.432-14.364-14.364-14.364h-89.777 h-88.668h-1.109h-88.668c-7.933,0-14.364,6.432-14.364,14.364v29.059H14.364C6.431,60.731,0,67.163,0,75.095v353.104 c0,23.761,19.331,43.092,43.092,43.092h194.19v9.036c0,7.932,6.431,14.364,14.364,14.364h96.958 c27.687,0,50.573-20.893,53.756-47.738h55.491c29.857,0,54.148-24.291,54.148-54.148C512,378.018,506.036,364.601,496.395,354.819z M306.895,46.035h61.049v14.694h-61.049L306.895,46.035L306.895,46.035z M218.227,46.035h59.94v14.694h-59.94V46.035z M128.45,46.035h59.94v14.694h-59.94V46.035z M28.728,89.459h438.938v250.079c-0.447-0.082-0.898-0.144-1.346-0.214 c-0.128-0.02-0.254-0.042-0.382-0.06c-0.718-0.106-1.439-0.197-2.163-0.276c-0.185-0.02-0.369-0.045-0.554-0.062 c-0.688-0.068-1.38-0.118-2.074-0.158c-0.208-0.013-0.415-0.032-0.625-0.042c-0.886-0.043-1.777-0.068-2.67-0.068 c-1.556,0-3.095,0.066-4.618,0.195c-1.523,0.129-3.028,0.322-4.512,0.575c-20.782,3.544-37.565,18.971-43.087,39.014h-44.741 c-5.631,0-10.492,3.248-12.846,7.965c-12.336,0.125-23.695,4.393-32.753,11.48H28.728V89.459z M43.092,442.563 c-7.92,0-14.364-6.444-14.364-14.364v-1.586h219.466c-6.263,1.548-10.912,7.188-10.912,13.929v2.02H43.092V442.563z M348.604,465.964H266.01v-11.056h42.809c7.932,0,14.364-6.432,14.364-14.364c0-14.018,11.404-25.42,25.42-25.42 c14.018,0,25.42,11.402,25.42,25.42S362.622,465.964,348.604,465.964z M457.852,418.225H397.92 c-1.801-3.963-4.064-7.67-6.722-11.056h26.869c7.932,0,14.364-6.432,14.364-14.364c0-14.018,11.404-25.42,25.42-25.42 c0.812,0,1.612,0.047,2.405,0.122c0.213,0.02,0.421,0.052,0.632,0.078c0.599,0.072,1.195,0.159,1.781,0.272 c0.203,0.039,0.405,0.082,0.608,0.125c0.625,0.136,1.241,0.294,1.849,0.477c0.138,0.042,0.277,0.078,0.414,0.121 c2.277,0.724,4.414,1.762,6.365,3.061c0.162,0.109,0.32,0.227,0.481,0.339c6.572,4.601,10.888,12.212,10.888,20.827 C483.272,406.822,471.868,418.225,457.852,418.225z"></path> 
</g>
</svg>