<svg viewBox="0 0 1024 1024" class="icon" version="1.1" xmlns="http://www.w3.org/2000/svg" fill="#000000"><g id="SVGRepo_bgCarrier" stroke-width="0"></g><g id="SVGRepo_tracerCarrier" stroke-linecap="round" stroke-linejoin="round"></g><g id="SVGRepo_iconCarrier"><path d="M992.763 494.538v35c0 13.332-6.04 26.664-18.135 37.137-140.15 121.422-280.35 242.795-420.49 364.219-11.814 10.238-25.813 15.502-42.454 15.502v-35c16.643 0 30.64-5.264 42.454-15.502 140.141-121.424 280.336-242.801 420.49-364.217 12.095-10.475 18.135-23.803 18.135-37.139z" fill="#744D9C"></path><path d="M29.239 529.367v-3.5-1.75-3.5-3.5-1.75-3.5-3.5-1.75-3.5-3.5-1.75-3.5c0 14.707 6.7 29.313 19.037 40.02C186.725 654.45 325.325 774.383 463.837 894.405c13.002 11.26 28.74 16.466 47.852 16.994v35c-19.108-0.528-34.85-5.734-47.852-16.994C325.325 809.383 186.725 689.45 48.276 569.387c-12.337-10.705-19.037-25.313-19.037-40.02z" fill="#744D9C"></path><path d="M509.786 77.601c16.263 0 32.546 5.362 44.947 16.098 139.95 121.188 279.901 242.376 419.819 363.585 24.241 20.995 24.295 53.414 0.079 74.397-140.15 121.42-280.35 242.796-420.489 364.218-11.815 10.238-25.814 15.501-42.453 15.501-19.109-0.528-34.851-5.734-47.854-16.994C325.324 774.383 186.724 654.45 48.274 534.387c-19.58-16.989-24.96-43.811-11.895-65.252 3.919-6.438 8.669-11.829 14.465-16.85 138.109-119.551 276.18-239.133 414.263-358.718 12.296-10.64 28.477-15.966 44.679-15.966z" fill="#D596C1"></path><path d="M713.778 475.508v16.8c0-18.759-1.537-37.181-8.361-55.184-23.97-63.271-72.768-105.024-147.552-120.431-17.647-3.638-34.786-5.437-51.362-5.437-54.738-0.001-103.403 19.6-144.604 57.264-36.319 33.207-53.556 73.687-53.707 119.498-0.014 3.959-0.02 7.92-0.02 11.878V483.07c0-3.951 0.006-7.902 0.02-11.854 0.151-45.814 17.388-86.293 53.707-119.499 41.199-37.664 89.865-57.264 144.604-57.263 16.576 0 33.713 1.799 51.362 5.437 74.784 15.407 123.58 57.16 147.552 120.432 6.824 18.003 8.361 36.426 8.361 55.185z" fill="#3E459A"></path><path d="M713.778 475.508v16.8c0-18.759-1.537-37.181-8.361-55.184-23.97-63.271-72.768-105.024-147.552-120.431-17.647-3.638-34.786-5.437-51.362-5.437-10.072 0-19.938 0.664-29.589 1.981v-16.8c9.652-1.317 19.517-1.981 29.589-1.981 16.576 0 33.713 1.799 51.362 5.437 74.784 15.407 123.58 57.161 147.552 120.432 6.824 18.001 8.361 36.424 8.361 55.183" fill="#3E459A"></path><path d="M476.916 296.438v16.8c-14.785 2.017-29.068 5.57-42.813 10.624v-16.8c13.745-5.054 28.028-8.607 42.813-10.624M434.103 307.062v16.8c-13.984 5.139-27.415 11.831-40.261 20.038v-16.8c12.846-8.209 26.276-14.899 40.261-20.038M393.841 327.099v16.8c-11.089 7.086-21.744 15.299-31.938 24.621-5.937 5.426-11.363 11.049-16.286 16.856v-16.8c4.925-5.807 10.351-11.428 16.286-16.856 10.195-9.322 20.849-17.535 31.938-24.621M345.615 368.575v16.801c-22.962 27.074-35.034 58.188-37.1 92.48v-16.8c2.066-34.292 14.138-65.404 37.1-92.481M308.515 461.057v16.8c-0.204 3.356-0.31 6.744-0.321 10.164-0.014 3.959-0.019 7.92-0.019 11.879v-16.8c0-3.959 0.005-7.92 0.019-11.88 0.011-3.418 0.119-6.806 0.321-10.163" fill="#3E459A"></path><path d="M406.202 513.217v16.8c0 13.236-0.009 26.475-0.009 39.71v-16.8c0-13.236 0.009-26.475 0.009-39.71z" fill="#3E459A"></path><path d="M406.202 513.217v16.8c0 13.236-0.009 26.475-0.009 39.71v-16.8c0-13.236 0.009-26.475 0.009-39.71" fill="#3E459A"></path><path d="M373.659 509.926c-32.923 5.861-65.572 33.276-65.534 71.24v-16.8c-0.043-40.134 36.449-68.479 71.172-72.029v16.8c-1.876 0.19-3.756 0.454-5.638 0.789-0.152-0.785-0.273-1.289-0.87-1.724 0.597 0.435 0.72 0.939 0.87 1.724z" fill="#3E459A"></path><path d="M379.299 492.336v16.8c-0.838 0.086-1.679 0.186-2.517 0.301v-16.8a71.628 71.628 0 0 1 2.517-0.301M376.782 492.637v16.8c-5.77 0.786-11.56 2.245-17.201 4.317v-16.8c5.641-2.075 11.431-3.533 17.201-4.317" fill="#3E459A"></path><path d="M359.581 496.954v16.8a87.536 87.536 0 0 0-16.887 8.378v-16.8a87.421 87.421 0 0 1 16.887-8.378M342.694 505.332v16.8c-6.858 4.385-13.124 9.755-18.379 15.965v-16.8c5.256-6.21 11.521-11.58 18.379-15.965M324.314 521.298v16.801c-9.055 10.7-15.113 23.899-16.06 38.881v-16.8c0.948-14.982 7.008-28.182 16.06-38.882" fill="#3E459A"></path><path d="M308.255 560.18v16.8a64.328 64.328 0 0 0-0.128 4.186v-16.801a65.033 65.033 0 0 1 0.128-4.185" fill="#3E459A"></path><path d="M713.986 585.118c-0.979-41.334-38.476-68.145-71.285-71.396v-16.8c32.81 3.252 70.306 30.063 71.285 71.397 0.011 0.413 0.015 0.826 0.015 1.237v16.8c0-0.413-0.004-0.828-0.015-1.238z" fill="#3E459A"></path><path d="M714.001 569.555v16.8c0-0.411-0.004-0.826-0.015-1.237-0.979-41.334-38.476-68.145-71.285-71.398v-16.8c32.81 3.254 70.306 30.065 71.285 71.399 0.011 0.41 0.015 0.824 0.015 1.236" fill="#3E459A"></path><path d="M379.3 492.336v144.098c-30.271-2.374-70.52-28.258-71.165-71.12a60.312 60.312 0 0 1-0.007-0.949c-0.044-40.135 36.448-68.479 71.172-72.029z" fill="#D8C1DD"></path><path d="M379.3 636.434v16.8c-30.271-2.374-70.52-28.257-71.165-71.12a60.186 60.186 0 0 1-0.007-0.948v-16.801c0 0.314 0.001 0.632 0.007 0.949 0.646 42.862 40.894 68.746 71.165 71.12z" fill="#3E459A"></path><path d="M379.3 636.434v16.8c-30.271-2.374-70.52-28.257-71.165-71.12a60.186 60.186 0 0 1-0.007-0.948v-16.801c0 0.314 0.001 0.632 0.007 0.949 0.646 42.862 40.894 68.746 71.165 71.12" fill="#3E459A"></path><path d="M714.003 569.555v16.8c0.073 34.746-31.435 67.022-71.302 71.751v-16.8c39.867-4.729 71.375-37.004 71.302-71.751z" fill="#3E459A"></path><path d="M714.003 569.555v16.8a57.562 57.562 0 0 1-0.114 3.718v-16.801c0.078-1.235 0.116-2.475 0.114-3.717M713.889 573.273v16.8c-0.879 14.104-6.888 27.646-16.441 38.918v-16.8c9.553-11.272 15.562-24.814 16.441-38.918M697.447 612.19v16.8c-5.216 6.153-11.49 11.632-18.563 16.156v-16.8c7.073-4.524 13.347-10 18.563-16.156M678.884 628.347v16.8a86.4 86.4 0 0 1-16.697 8.285v-16.8a86.314 86.314 0 0 0 16.697-8.285M662.187 636.632v16.8a85.646 85.646 0 0 1-18.016 4.484v-16.8a85.692 85.692 0 0 0 18.016-4.484M644.171 641.117v16.8c-0.488 0.068-0.979 0.13-1.47 0.19v-16.8c0.49-0.061 0.982-0.122 1.47-0.19" fill="#3E459A"></path><path d="M642.701 496.918c32.81 3.255 70.306 30.066 71.285 71.399 0.011 0.414 0.015 0.825 0.017 1.238 0.073 34.746-31.435 67.022-71.302 71.752V496.918z" fill="#D8C1DD"></path><path d="M406.193 553.021v110.583c-0.008 9.793-4.826 13.996-15.467 13.996-0.701 0-1.429-0.018-2.183-0.055-31.711-1.511-58.201-12.387-79.249-32.928-15.18-14.813-23.96-32.229-26.813-51.889-0.202-1.378-0.574-2.741-0.875-4.113v-16.801c0.302 1.372 0.674 2.734 0.875 4.114 2.854 19.659 11.633 37.074 26.813 51.889 21.048 20.541 47.538 31.415 79.249 32.928 0.754 0.037 1.48 0.055 2.183 0.055 10.641 0 15.459-4.203 15.467-13.996v-93.783z" fill="#3E459A"></path><path d="M406.193 553.021v110.583c0 0.55-0.015 1.079-0.045 1.592v-16.8c0.03-0.513 0.045-1.042 0.045-1.592v-93.783M406.145 648.396v16.8c-0.208 3.471-1.113 6.15-2.769 8.118v-16.8c1.657-1.968 2.562-4.648 2.769-8.118M403.376 656.515v16.8a9.859 9.859 0 0 1-2.231 1.948v-16.8a9.8 9.8 0 0 0 2.231-1.948" fill="#3E459A"></path><path d="M401.146 658.461v16.801c-0.711 0.452-1.5 0.841-2.367 1.159v-16.8a12.199 12.199 0 0 0 2.367-1.16M398.778 659.621v16.8c-1.146 0.421-2.431 0.726-3.859 0.917v-16.8c1.429-0.191 2.714-0.496 3.859-0.917M394.919 660.539v16.801a31.095 31.095 0 0 1-4.193 0.262c-0.701 0-1.429-0.018-2.183-0.055-31.711-1.511-58.201-12.387-79.249-32.926-15.18-14.814-23.96-32.231-26.813-51.89-0.202-1.379-0.574-2.741-0.875-4.114v-16.8c0.302 1.371 0.674 2.734 0.875 4.113 2.854 19.659 11.633 37.076 26.813 51.891 21.048 20.539 47.538 31.414 79.249 32.926 0.754 0.037 1.48 0.055 2.183 0.055a31.087 31.087 0 0 0 4.193-0.263" fill="#3E459A"></path><path d="M740.395 576.471v16.801c-2.64 9.36-3.97 19.179-8.163 27.978-15.896 33.365-44.826 53.292-85.943 59.685-5.118 0.795-10.372 1.021-15.574 1.282v-16.8c5.202-0.261 10.456-0.488 15.574-1.282 41.117-6.391 70.047-26.319 85.943-59.685 4.193-8.8 5.523-18.619 8.163-27.979z" fill="#3E459A"></path><path d="M740.395 576.471v16.801c-2.64 9.36-3.97 19.179-8.163 27.978-4.051 8.501-8.948 16.13-14.677 22.887v-16.8c5.729-6.755 10.627-14.384 14.677-22.887 4.193-8.8 5.523-18.619 8.163-27.979M717.553 627.336v16.8c-6.321 7.454-13.655 13.843-21.982 19.165v-16.8c8.326-5.322 15.658-11.711 21.982-19.165M695.57 646.501v16.8c-6.593 4.214-13.808 7.759-21.636 10.636v-16.8c7.829-2.877 15.044-6.422 21.636-10.636" fill="#3E459A"></path><path d="M673.935 657.137v16.8c-8.496 3.121-17.715 5.455-27.646 6.997-0.433 0.067-0.868 0.13-1.303 0.19v-16.8c0.435-0.061 0.87-0.123 1.303-0.19 9.931-1.544 19.149-3.877 27.646-6.997M644.985 664.324v16.8c-4.707 0.643-9.509 0.853-14.271 1.092v-16.8c4.763-0.239 9.564-0.449 14.271-1.092" fill="#3E459A"></path><path d="M736.887 436.3c1.474 7.369 2.361 14.815 3.508 22.217v117.954c-2.64 9.361-3.97 19.18-8.163 27.979-15.896 33.365-44.826 53.292-85.943 59.685-5.118 0.794-10.372 1.02-15.574 1.282-9.347 0.03-14.868-4.759-14.877-12.15-0.038-56.114-0.038-112.236 0-168.359 0.009-7.615 5.773-12.218 14.439-12.218 32.493 1.123 59.296 11.354 80.907 31.529 0.554 0.514 1.197 0.976 1.855 1.5 0.876-29.252 2.83-57.815-7.622-85.393-23.97-63.271-72.768-105.024-147.55-120.432-17.649-3.637-34.788-5.437-51.364-5.437-54.738-0.001-103.403 19.6-144.604 57.263-36.318 33.207-53.556 73.686-53.707 119.499-0.029 8.79-0.02 17.581 0 26.372 0.011 1.101 0.171 2.2 0.303 3.708 4.638-3.753 8.688-7.314 13.073-10.534 20.371-14.953 44.15-22.12 70.7-22.653 8.428-0.004 13.881 4.941 13.9 12.274 0.051 24.179 0.019 48.361 0.019 72.54v93.878c-0.008 9.793-4.826 13.996-15.467 13.996-0.702 0-1.429-0.02-2.184-0.055-31.71-1.511-58.201-12.387-79.249-32.928-15.18-14.814-23.96-32.229-26.812-51.889-0.204-1.378-0.575-2.741-0.877-4.113V458.514c0.282-1.256 0.625-2.504 0.817-3.771 1.088-7.166 1.694-14.412 3.276-21.5 10.18-45.68 35.622-83.908 76.588-113.938 43.488-31.875 92.678-47.521 146.709-47.522 12.168 0 24.58 0.793 37.231 2.374 48.231 6.023 89.903 24.461 124.79 53.984 35.336 29.9 57.481 65.936 65.878 108.159z m-94.186 205.006c39.865-4.728 71.374-37.006 71.3-71.751 0-0.412-0.004-0.824-0.015-1.236-0.979-41.335-38.476-68.146-71.285-71.398v144.385m-263.402-148.97c-34.723 3.55-71.215 31.895-71.172 72.028 0 0.316 0.003 0.632 0.007 0.949 0.646 42.862 40.896 68.745 71.165 71.12V492.336" fill="#7F68AC"></path><path d="M615.807 585.89v-16.8c0 28.06 0.01 56.119 0.029 84.176 0.008 7.39 5.53 12.178 14.876 12.15v16.8c-9.346 0.03-14.868-4.759-14.876-12.149-0.02-28.058-0.029-56.117-0.029-84.177z" fill="#3E459A"></path><path d="M630.714 665.416v16.8c-9.347 0.03-14.868-4.759-14.877-12.149-0.021-28.058-0.028-56.116-0.028-84.177v-16.8c0 28.06 0.01 56.119 0.028 84.176 0.009 7.391 5.53 12.18 14.877 12.15" fill="#3E459A"></path></g></svg>