<svg viewBox="0 0 1024 1024" class="icon" version="1.1" xmlns="http://www.w3.org/2000/svg" fill="#000000"><g id="SVGRepo_bgCarrier" stroke-width="0"></g><g id="SVGRepo_tracerCarrier" stroke-linecap="round" stroke-linejoin="round"></g><g id="SVGRepo_iconCarrier"><path d="M993.763 493.538v35c0 13.331-6.04 26.664-18.135 37.137-140.149 121.422-280.35 242.795-420.49 364.219-11.813 10.237-25.813 15.501-42.454 15.501v-35c16.644 0 30.641-5.264 42.454-15.501C695.28 773.47 835.474 652.092 975.628 530.677c12.095-10.475 18.135-23.803 18.135-37.139z" fill="#56C1D5"></path><path d="M30.239 528.367v-3.5-1.75-3.5-3.5-1.75-3.5-3.5-1.75-3.5-3.5-1.75-3.5c0 14.707 6.701 29.313 19.037 40.019 138.448 120.064 277.049 239.996 415.562 360.02 13.002 11.26 28.74 16.466 47.853 16.994v35c-19.108-0.528-34.851-5.734-47.853-16.994C326.325 808.382 187.725 688.45 49.276 568.386c-12.337-10.705-19.037-25.312-19.037-40.019z" fill="#56C1D5"></path><path d="M510.786 76.601c16.263 0 32.546 5.362 44.946 16.097 139.949 121.188 279.9 242.376 419.818 363.586 24.241 20.995 24.295 53.413 0.079 74.396C835.48 652.101 695.28 773.478 555.141 894.898c-11.814 10.238-25.813 15.502-42.451 15.502-19.109-0.528-34.853-5.734-47.854-16.994C326.324 773.382 187.724 653.45 49.275 533.386c-19.581-16.987-24.96-43.81-11.895-65.251 3.919-6.438 8.669-11.829 14.465-16.849C189.954 331.734 328.024 212.152 466.107 92.567c12.296-10.639 28.478-15.966 44.679-15.966z" fill="#75C8D6"></path><path d="M403.512 331.815c16.662 26.399 33.112 52.474 48.999 77.632a46043.155 46043.155 0 0 1-20.806 17.851c-28.889-13.688-59.1-27.987-89.521-42.39 15.796-21.711 36.026-39.3 61.328-53.093z" fill="#DAEFF4"></path><path d="M509.081 464.497c-0.167 0.001-0.332 0.005-0.496 0.009 0.007-5.6 0.007-11.2 0-16.8l0.496-0.01c0.146-0.001 0.291-0.002 0.476-0.001 0.793 0 1.593 0.026 2.395 0.085v16.8a34.475 34.475 0 0 0-2.871-0.083z m2.834-16.066l-0.015-0.001-0.016-0.001h-0.015l-0.015-0.001h-0.019l-0.017-0.001-0.017-0.001h-0.018l-0.017-0.001h-0.017l-0.017-0.001-0.019-0.001h-0.015l-0.016-0.001h-0.03 0.03l0.016 0.001h0.015l0.019 0.001 0.017 0.001h0.017l0.017 0.001h0.018l0.017 0.001 0.017 0.001h0.019l0.015 0.001h0.015l0.016 0.001 0.015 0.001m0 14.075h-0.031l-0.015-0.001-0.015-0.001h-0.019l-0.017-0.001h-0.017l-0.018-0.001-0.017-0.001h-0.017l-0.017-0.003h-0.034l-0.016-0.001h-0.03 0.03l0.016 0.001h0.034l0.017 0.003h0.017l0.017 0.001 0.018 0.001h0.017l0.017 0.001h0.019l0.015 0.001 0.015 0.001h0.031" fill="#6CBEE5"></path><path d="M511.952 447.778v16.8a33.891 33.891 0 0 0-2.395-0.085l-0.476 0.001c-1.43 0.018-2.838 0.125-4.221 0.312v-16.8a34.533 34.533 0 0 1 7.092-0.228" fill="#6CBEE5"></path><path d="M514.271 464.499c-0.797 0.001-1.556 0.027-2.319 0.08v-16.8a33.83 33.83 0 0 1 2.319-0.079V464.499z" fill="#6CBEE5"></path><path d="M548.271 478.882v16.8c0.026-16.021-15.229-30.948-33.551-31.18-0.145-0.001-0.287-0.003-0.435-0.003-0.8 0.001-1.566 0.027-2.336 0.08v-16.8c0.77-0.054 1.537-0.078 2.336-0.079l0.435 0.002c18.322 0.231 33.579 15.161 33.551 31.18" fill="#6CBEE5"></path><path d="M508.585 464.506c-18.333 0.494-33.085 15.454-33.123 31.028v-16.8c0.037-15.574 14.79-30.536 33.123-31.028 0.007 5.6 0.007 11.2 0 16.8z" fill="#6CBEE5"></path><path d="M511.952 447.778v16.8a33.891 33.891 0 0 0-2.395-0.085l-0.476 0.001c-1.43 0.018-2.838 0.125-4.221 0.312v-16.8a34.533 34.533 0 0 1 7.092-0.228M504.86 448.008v16.8a34.915 34.915 0 0 0-7.335 1.827v-16.8a34.93 34.93 0 0 1 7.335-1.827M497.525 449.834v16.8a35.561 35.561 0 0 0-6.894 3.425v-16.8a35.732 35.732 0 0 1 6.894-3.425" fill="#6CBEE5"></path><path d="M490.632 453.259v16.8a35.352 35.352 0 0 0-7.926 6.923v-16.801a35.301 35.301 0 0 1 7.926-6.922" fill="#6CBEE5"></path><path d="M482.708 460.182v16.801c-4.184 4.947-6.81 10.915-7.195 17.047v-16.8c0.383-6.134 3.011-12.102 7.195-17.048M475.513 477.229v16.8a24.374 24.374 0 0 0-0.049 1.505v-16.8c-0.001-0.503 0.015-1.005 0.049-1.505" fill="#6CBEE5"></path><path d="M514.271 464.499v-0.015-0.017-0.015-0.018-0.016-0.017-0.016-0.014-1.949-2.063-2.145-2.182-2.184-2.141-2.066-1.946h0.018c0.146 0 0.289 0.001 0.435 0.003 18.32 0.23 33.575 15.161 33.55 31.18v16.8c0-0.167-0.001-0.333-0.006-0.5v-0.163-0.172-0.181-0.184-0.182-0.181-0.175-0.163V495.178c-0.283-15.829-15.417-30.451-33.544-30.68-0.146-0.001-0.286-0.003-0.435-0.003-0.006 0.004-0.012 0.004-0.018 0.004z" fill="#6CBEE5"></path><path d="M548.271 478.882v16.8c0.026-16.021-15.229-30.948-33.551-31.18-0.145-0.001-0.287-0.003-0.435-0.003-0.8 0.001-1.566 0.027-2.336 0.08v-16.8c0.77-0.054 1.537-0.078 2.336-0.079l0.435 0.002c18.322 0.231 33.579 15.161 33.551 31.18" fill="#6CBEE5"></path><path d="M582.773 478.289c0.005 0.267 0.006 0.53 0.006 0.797 0.014 33.693-30.298 60.289-70.394 61.235-0.291 0.007-0.583 0.011-0.875 0.017-0.287 0.001-0.577 0.004-0.86 0.004-37.453-0.217-69.769-28.207-69.887-60.338-0.001-0.255 0-0.508 0.002-0.763 0.424-34.403 30.554-60.802 71.023-62.155 38.287 1.153 70.472 25.062 70.985 61.203z m-70.46 32c19.159-0.23 35.938-15.015 35.961-31.407 0.026-16.019-15.229-30.949-33.55-31.18l-0.435-0.002c-0.802 0.001-1.567 0.026-2.337 0.079a33.887 33.887 0 0 0-2.395-0.084l-0.476 0.001c-18.561 0.233-33.581 15.323-33.619 31.038-0.041 16.708 17.136 31.521 36.328 31.558 0.22 0 0.371 0 0.523-0.003" fill="#B2DFEB"></path><path d="M510.65 540.341v16.8c-37.453-0.217-69.769-28.207-69.887-60.337v-16.8c0.12 32.13 32.435 60.12 69.887 60.337z" fill="#5996CE"></path><path d="M510.65 540.341v16.8c-37.453-0.217-69.769-28.207-69.887-60.337v-16.8c0.12 32.13 32.435 60.12 69.887 60.337" fill="#5996CE"></path><path d="M582.779 479.085v16.802c0.014 33.691-30.298 60.288-70.394 61.233-0.291 0.007-0.583 0.012-0.875 0.017-0.287 0.002-0.577 0.004-0.86 0.004v-16.8c0.285 0 0.575-0.003 0.86-0.004 0.292-0.006 0.583-0.01 0.875-0.017 40.096-0.944 70.407-27.542 70.394-61.235z" fill="#5996CE"></path><path d="M582.779 479.085v16.802a55.423 55.423 0 0 1-0.104 3.468v-16.801a56.16 56.16 0 0 0 0.104-3.469M582.674 482.554v16.8c-0.762 12.257-5.563 23.46-13.371 32.667v-16.8c7.808-9.207 12.609-20.411 13.371-32.667" fill="#5996CE"></path><path d="M569.305 515.222v16.801c-4.139 4.881-9.119 9.2-14.789 12.823v-16.8c5.67-3.623 10.65-7.943 14.789-12.824M554.514 528.046v16.8c-4.434 2.833-9.288 5.238-14.494 7.15v-16.8c5.206-1.913 10.06-4.317 14.494-7.15" fill="#5996CE"></path><path d="M540.021 535.196v16.8c-5.492 2.017-11.371 3.486-17.552 4.327v-16.8c6.18-0.84 12.059-2.309 17.552-4.327" fill="#5996CE"></path><path d="M522.47 539.523v16.8c-3.28 0.447-6.646 0.717-10.083 0.797-0.291 0.007-0.583 0.012-0.875 0.017-0.287 0.002-0.577 0.004-0.86 0.004v-16.8c0.286 0 0.575-0.003 0.86-0.004 0.292-0.006 0.583-0.01 0.875-0.017a90.06 90.06 0 0 0 10.083-0.797" fill="#5996CE"></path><path d="M591.956 546.987c-5.588 4.797-10.784 9.27-16.115 13.852-0.004-4.345-0.013-4.807-0.185-16.641 5.395-4.639 10.646-9.158 16.3-14.013v16.802z" fill="#5996CE"></path><path d="M591.956 530.187v16.802c-7.188 6.17-13.729 11.801-20.735 17.823v-16.801c7.008-6.023 13.549-11.654 20.735-17.824" fill="#5996CE"></path><path d="M575.842 560.839c-1.523 1.313-3.061 2.632-4.619 3.975v-16.8c1.495-1.288 2.972-2.556 4.436-3.814 0.171 11.832 0.179 12.293 0.183 16.639z" fill="#5996CE"></path><path d="M591.956 530.187v16.802c-7.188 6.17-13.729 11.801-20.735 17.823v-16.801c7.008-6.023 13.549-11.654 20.735-17.824" fill="#5996CE"></path><path d="M694.359 551.651v16.801c-30.068-14.238-60.115-28.468-90.215-42.714v-16.8c30.099 14.247 60.147 28.476 90.215 42.713z" fill="#5996CE"></path><path d="M694.359 551.651v16.801c-30.068-14.238-60.115-28.468-90.215-42.714v-16.8c30.099 14.247 60.147 28.476 90.215 42.713" fill="#5996CE"></path><path d="M713.547 478.879v16.8c-0.062 24.867-6.375 49.744-19.188 72.773v-16.801c12.813-23.028 19.126-47.907 19.188-72.772z" fill="#5996CE"></path><path d="M713.547 478.879v16.8c-0.009 2.838-0.096 5.68-0.267 8.516v-16.801c0.171-2.837 0.258-5.675 0.267-8.515M713.28 487.394v16.801c-1.321 22.007-7.571 43.857-18.922 64.258v-16.801c11.351-20.4 17.601-42.252 18.922-64.258" fill="#5996CE"></path><path d="M511.795 303.958c48.374 0.074 97.765 15.135 137.68 47.438 42.287 34.225 64.188 80.828 64.073 127.483-0.062 24.866-6.375 49.744-19.187 72.772-30.069-14.237-60.115-28.468-90.215-42.713 3.313-10.735 5.187-21.183 5.229-31.269 0.092-21.403-8.049-41.182-28.082-58.639-0.321-0.279-0.641-0.555-0.964-0.83-0.288-0.245-0.574-0.485-0.861-0.728a116.458 116.458 0 0 0-2.293-1.856c-19.038-14.924-40.136-21.143-63.026-21.247-12.444 0.016-24.58 1.609-37.122 4.462-16.38-25.953-32.811-52.001-49.262-78.05l1.406-0.598 1.297-0.541c24.887-10.257 52.802-15.647 81.327-15.684z" fill="#B2DFEB"></path><path d="M545.626 575.375c-0.837 0.234-1.671 0.457-2.506 0.672-0.062-5.585-0.12-11.169-0.18-16.755 0.896-0.229 1.79-0.468 2.687-0.718 0.29-0.082 0.577-0.162 0.867-0.246v16.8c-0.29 0.086-0.577 0.167-0.868 0.247z" fill="#5996CE"></path><path d="M546.494 558.33v16.801c-0.29 0.084-0.577 0.164-0.868 0.246a129.745 129.745 0 0 1-17.162 3.563v-16.802a128.719 128.719 0 0 0 17.162-3.562c0.291-0.082 0.578-0.162 0.868-0.246" fill="#5996CE"></path><path d="M511.887 580.073c-54.619-0.42-97.967-37.322-97.969-84.405v-16.804c0 47.084 43.345 83.985 97.964 84.408 0.006 5.601 0.005 11.201 0.005 16.801z" fill="#5996CE"></path><path d="M528.464 562.137v16.8a122.205 122.205 0 0 1-16.422 1.138c-54.694-0.352-98.123-37.281-98.123-84.411v-16.798c0 47.128 43.429 84.059 98.123 84.408a122.366 122.366 0 0 0 16.422-1.137" fill="#5996CE"></path><path d="M511.887 580.073c0-5.602 0.001-11.2-0.004-16.801h0.159c10.007-0.012 20.381-1.282 30.898-3.979 0.059 5.586 0.119 11.17 0.181 16.755-10.581 2.729-21.018 4.014-31.079 4.025h-0.155z" fill="#5996CE"></path><path d="M546.494 558.33v16.801c-0.29 0.084-0.577 0.164-0.868 0.246a129.745 129.745 0 0 1-17.162 3.563v-16.802a128.719 128.719 0 0 0 17.162-3.562c0.291-0.082 0.578-0.162 0.868-0.246" fill="#5996CE"></path><path d="M528.464 562.137v16.8a122.205 122.205 0 0 1-16.422 1.138c-54.694-0.352-98.123-37.281-98.123-84.411v-16.798c0 47.128 43.429 84.059 98.123 84.408a122.366 122.366 0 0 0 16.422-1.137" fill="#5996CE"></path><path d="M681.566 572.603v16.801c-30.603-14.49-60.782-28.782-89.61-42.415v-16.802c28.828 13.633 59.009 27.924 89.61 42.416z" fill="#5996CE"></path><path d="M681.566 572.603v16.801c-30.603-14.49-60.782-28.782-89.61-42.415v-16.802c28.828 13.633 59.009 27.924 89.61 42.416" fill="#5996CE"></path><path d="M379.451 610.14v16.802c-45.352-34.121-69.337-82.681-69.203-131.594v-16.8c-0.135 48.914 23.852 97.473 69.203 131.592z" fill="#5996CE"></path><path d="M379.451 610.14v16.802c-45.352-34.121-69.337-82.681-69.203-131.594v-16.8c-0.135 48.914 23.852 97.473 69.203 131.592" fill="#5996CE"></path><path d="M591.957 530.187c28.829 13.635 59.007 27.926 89.611 42.416-15.948 21.845-36.188 39.432-61.338 53.084-16.602-26.311-33.104-52.472-49.011-77.676 7.01-6.023 13.551-11.654 20.738-17.824z" fill="#DAEFF4"></path><path d="M681.568 572.603v16.801c-15.948 21.844-36.188 39.432-61.338 53.084v-16.801c25.15-13.654 45.39-31.241 61.338-53.084z" fill="#5996CE"></path><path d="M681.568 572.603v16.801a180.395 180.395 0 0 1-8.148 10.349v-16.8a180.577 180.577 0 0 0 8.148-10.35M673.42 582.951v16.8c-11.564 13.631-25.081 25.399-40.729 35.394v-16.8c15.648-9.996 29.163-21.763 40.729-35.394" fill="#5996CE"></path><path d="M632.691 618.345v16.8a204.09 204.09 0 0 1-12.459 7.343v-16.801a203.988 203.988 0 0 0 12.459-7.342" fill="#5996CE"></path><path d="M620.232 625.687v16.801c-16.602-26.312-33.104-52.473-49.011-77.677v-16.8c15.907 25.203 32.409 51.365 49.011 77.676z" fill="#5996CE"></path><path d="M620.232 625.687v16.801c-16.602-26.312-33.104-52.473-49.011-77.677v-16.8c15.907 25.203 32.409 51.365 49.011 77.676" fill="#5996CE"></path><path d="M595.929 636.625v16.8c-16.502-26.136-32.993-52.263-49.436-78.296v-16.8c16.443 26.032 32.934 52.161 49.436 78.296z" fill="#5996CE"></path><path d="M595.929 636.625v16.8c-16.502-26.136-32.993-52.263-49.436-78.296v-16.8c16.443 26.032 32.934 52.161 49.436 78.296" fill="#5996CE"></path><path d="M329.333 405.859c30.179 14.28 60.328 28.546 90.406 42.775a93.26 93.26 0 0 0-0.93 2.536c-20.934 59.526 28.185 111.685 92.337 112.1 11.761-0.009 23.041-1.504 34.48-4.694 0.29-0.082 0.579-0.161 0.868-0.247 16.442 26.033 32.932 52.16 49.436 78.297-25.218 10.93-54.144 16.818-83.976 16.848-43.805-0.1-88.691-12.396-127.028-39.352a207.65 207.65 0 0 1-2.449-1.748c-0.87-0.634-1.238-0.905-1.609-1.178-0.474-0.351-0.945-0.701-1.415-1.058-45.352-34.119-69.337-82.678-69.203-131.592 0.068-24.744 6.311-49.58 19.083-72.687z" fill="#B2DFEB"></path><path d="M595.929 636.625v16.8c-25.219 10.93-54.144 16.818-83.975 16.85-43.805-0.102-88.691-12.398-127.028-39.354a199.668 199.668 0 0 1-2.449-1.748c-0.87-0.633-1.237-0.905-1.609-1.178-0.473-0.35-0.945-0.701-1.415-1.057v-16.801c0.47 0.355 0.942 0.707 1.415 1.058 0.372 0.271 0.74 0.544 1.609 1.178 0.812 0.589 1.632 1.174 2.449 1.748 38.337 26.954 83.225 39.252 127.028 39.352 29.831-0.03 58.759-5.918 83.975-16.848z" fill="#5996CE"></path><path d="M595.929 636.625v16.8a190.894 190.894 0 0 1-10.028 4.009v-16.8c3.4-1.25 6.744-2.587 10.028-4.009M585.899 640.635v16.802c-13.78 5.063-28.491 8.694-43.72 10.776v-16.8c15.231-2.083 29.94-5.715 43.72-10.778" fill="#5996CE"></path><path d="M542.182 651.413v16.8a225.04 225.04 0 0 1-30.227 2.063c-43.805-0.101-88.691-12.397-127.028-39.353a189.464 189.464 0 0 1-2.448-1.749c-0.871-0.633-1.239-0.905-1.61-1.177-0.474-0.352-0.945-0.701-1.415-1.056V610.14c0.47 0.354 0.941 0.705 1.415 1.057 0.372 0.271 0.74 0.544 1.61 1.177 0.812 0.589 1.631 1.175 2.448 1.749 38.337 26.954 83.225 39.252 127.028 39.352a224.887 224.887 0 0 0 30.227-2.062" fill="#5996CE"></path><path d="M511.75 281.054c126.027-0.007 228.735 89.006 228.41 198.101-0.313 109.489-103.569 197.393-228.526 197.393-125.098-0.147-229.174-88.745-227.783-197.959-1.038-108.85 101.951-197.387 227.899-197.535z m92.393 227.885c30.1 14.244 60.148 28.475 90.217 42.712 12.812-23.027 19.124-47.907 19.187-72.772 0.114-46.654-21.786-93.257-64.073-127.483-39.915-32.304-89.307-47.364-137.027-47.438-29.18 0.035-57.086 5.423-81.981 15.686-0.432 0.178-0.864 0.359-1.296 0.541-0.467 0.197-0.939 0.396-1.405 0.596 16.451 26.048 32.879 52.098 49.262 78.051 12.54-2.852 24.679-4.446 36.354-4.461 23.656 0.105 44.755 6.324 63.589 21.088 0.97 0.763 1.735 1.384 2.494 2.017 0.29 0.241 0.575 0.483 0.864 0.728 0.32 0.275 0.643 0.552 0.964 0.83 20.033 17.458 28.173 37.234 28.082 58.639-0.044 10.085-1.914 20.532-5.231 31.266m-92.955 144.536c30.604-0.028 59.519-5.917 84.741-16.848-16.502-26.136-32.993-52.264-49.436-78.297-0.29 0.085-0.576 0.164-0.868 0.246-11.438 3.188-22.726 4.688-33.584 4.695-65.051-0.415-114.167-52.575-93.234-112.101a90.063 90.063 0 0 1 0.932-2.537c-30.078-14.229-60.229-28.495-90.407-42.774-12.774 23.105-19.016 47.942-19.086 72.687-0.135 48.916 23.852 97.472 69.203 131.593 0.471 0.354 0.942 0.705 1.415 1.057 0.374 0.271 0.74 0.545 1.111 0.814 1.311 0.95 2.131 1.536 2.948 2.111 38.34 26.954 83.223 39.254 126.265 39.354m0.602-236.389c-40.47 1.354-70.6 27.751-71.023 62.155-0.001 0.253-0.002 0.507-0.001 0.761 0.116 32.129 32.435 60.119 69.443 60.337 0.73 0.001 1.015-0.002 1.304-0.004 0.292-0.003 0.583-0.01 0.875-0.017 40.093-0.946 70.404-27.541 70.393-61.235 0-0.266-0.002-0.531-0.005-0.797-0.516-36.138-32.703-60.047-70.986-61.2m108.44 208.602c25.148-13.654 45.39-31.241 61.338-53.086-30.603-14.49-60.782-28.781-89.611-42.416-7.188 6.172-13.729 11.803-20.734 17.824 15.904 25.205 32.406 51.368 49.007 77.678M403.511 331.815c-25.301 13.793-45.53 31.384-61.326 53.094 30.421 14.403 60.631 28.702 89.521 42.39 7.175-6.153 13.831-11.863 20.805-17.852-15.888-25.156-32.338-51.232-49-77.632" fill="#6CBEE5"></path><path d="M740.162 479.153v16.8c-0.313 109.49-103.57 197.393-228.527 197.393-125.098-0.148-229.173-88.745-227.783-197.959v-16.8c-1.392 109.215 102.684 197.811 227.783 197.959 124.957 0 228.215-87.903 228.527-197.393z" fill="#5996CE"></path><path d="M740.162 479.153v16.8c-0.01 3.476-0.123 6.929-0.337 10.357v-16.8c0.214-3.428 0.327-6.882 0.337-10.357M739.824 489.51v16.8c-2.479 39.574-18.419 75.973-43.834 105.932v-16.8c25.415-29.96 41.357-66.357 43.834-105.932" fill="#5996CE"></path><path d="M695.992 595.441v16.8c-13.747 16.208-30.27 30.533-48.928 42.457v-16.8c18.66-11.923 35.181-26.248 48.928-42.457M647.064 637.899v16.8c-14.351 9.173-29.963 16.922-46.558 23.02v-16.8c16.596-6.098 32.209-13.849 46.558-23.02" fill="#5996CE"></path><path d="M600.508 660.919v16.8c-16.856 6.194-34.726 10.685-53.297 13.222V674.14c18.571-2.538 36.439-7.027 53.297-13.221M547.209 674.14v16.801a263.23 263.23 0 0 1-35.575 2.405c-125.098-0.148-229.174-88.745-227.783-197.959v-16.8c-1.392 109.215 102.684 197.811 227.783 197.959a263.23 263.23 0 0 0 35.575-2.406" fill="#5996CE"></path></g></svg>